# xmcd
#
# Track frame offsets:
#	150
#	15067
#	27965
#	42320
#	55030
#	68057
#	81655
#	94712
#	107595
#	119875
#	133475
#	146877
#	159485
#	171632
#	183040
#	203265
#	217245
#	231160
#
# Disc length: 3248
#
# Revision: 1
# Processed by: cddbd v1.5.1PL0 Copyright (c) Steve Scherf et al.
# Submitted via: OrangeCD 4.2
# Normalized: r0:DSETVAR1,TDELIM( - )
#
DISCID=040cae12
DTITLE=Various Artist - Stayin' Home With The Blues
DYEAR=1998
DGENRE=Blues
TTITLE0=Bedroom Blues - Sippie Wallace with Albert Ammons and His Rhythm Kings
TTITLE1=Willie Nelson - Big Bill Broonzy
TTITLE2=Lightnin' Hopkins - Sad News From Korea
TTITLE3=Jet Propelled Papa - Helen Humes and Buck Clayton's Orchestra
TTITLE4=West Coast Blues - J D Edwards
TTITLE5=Sweet Patooty Boogie - Albert Ammons and His Rhythm Kings
TTITLE6=Water Coast Blues - Big Bill Broonzy and His Fat Four
TTITLE7=Oil Man Blues - Eddie "Cleanhead" Vinson and His Orchestra
TTITLE8=Dust My Broom - Robert Lockwood Jr.
TTITLE9=Brown Skinned Woman - Sunnyland Slim and His Trio
TTITLE10=St. Louis Blues - Albert Ammons and His Rhythm Kings
TTITLE11=No Mail Blues - Memphis Slim and His Orchestra
TTITLE12=Beer Drinking Baby - Billy Valentine
TTITLE13=My Man's An Undertaker - Dinah Washington
TTITLE14=Sweet Home Chicago - Freddie King
TTITLE15=Garfield Avenue Blues - Jay McShann and The Boogie Woogie Sextet With Crown Prince Waterford
TTITLE16=Shipyard Woman Blues - Jay McShann and The Sextet With Jimmy Witherspoon
TTITLE17=Byrd's Blues - Roy Byrd (Professor Longhair) And His Blues Jumpers
EXTD=
EXTT0=
EXTT1=
EXTT2=
EXTT3=
EXTT4=
EXTT5=
EXTT6=
EXTT7=
EXTT8=
EXTT9=
EXTT10=
EXTT11=
EXTT12=
EXTT13=
EXTT14=
EXTT15=
EXTT16=
EXTT17=
PLAYORDER=
